<svg width="446.000000" height="11.000000" viewBox="0 0 446 11" fill="none" xmlns="http://www.w3.org/2000/svg" xmlns:xlink="http://www.w3.org/1999/xlink">
	<desc>
			Created with Pixso.
	</desc>
	<defs/>
	<path id="Vector" d="M0.5 0.5C8.74402 0.5 8.74402 10.5 16.9879 10.5C25.2319 10.5 25.2319 0.5 33.4758 0.5C41.7198 0.5 41.7198 10.5 49.9445 10.5C58.1887 10.5 58.1887 0.5 66.4131 0.5C74.6572 0.5 74.6572 10.5 82.8816 10.5C91.1257 10.5 91.1257 0.5 99.3693 0.5C107.613 0.5 107.613 10.5 115.858 10.5C124.101 10.5 124.101 0.5 132.345 0.5C140.589 0.5 140.589 10.5 148.833 10.5C157.077 10.5 157.077 0.5 165.321 0.5C173.565 0.5 173.565 10.5 181.809 10.5C190.053 10.5 190.053 0.5 198.297 0.5C206.541 0.5 206.541 10.5 214.766 10.5C223.01 10.5 223.01 0.5 231.234 0.5C239.478 0.5 239.478 10.5 247.703 10.5C255.947 10.5 255.947 0.5 264.19 0.5C272.435 0.5 272.435 10.5 280.679 10.5C288.922 10.5 288.922 0.5 297.167 0.5C305.411 0.5 305.411 10.5 313.655 10.5C321.898 10.5 321.898 0.5 330.142 0.5C338.386 0.5 338.386 10.5 346.63 10.5C354.874 10.5 354.874 0.5 363.118 0.5C371.362 0.5 371.362 10.5 379.587 10.5C387.831 10.5 387.831 0.5 396.056 0.5C404.3 0.5 404.3 10.5 412.524 10.5C420.768 10.5 420.768 0.5 429.012 0.5C437.256 0.5 437.256 10.5 445.5 10.5" stroke="#A1A6B4" stroke-opacity="1.000000" stroke-width="1.000000" stroke-linecap="square"/>
</svg>
